<svg xmlns="http://www.w3.org/2000/svg" viewBox="0 0 800 800" opacity="0.72" role="img" aria-label="Nathan Waltz spiral">
  <defs>
    <linearGradient x1="50%" y1="0%" x2="50%" y2="100%" id="cccoil-grad">
      <stop stop-color="hsl(349,85%,60%)" offset="0%"/>
      <stop stop-color="hsl(206,97%,61%)" offset="100%"/>
    </linearGradient>
  </defs>

  <style>
    .spin {
        transform-box: fill-box;
        transform-origin: center;
        animation: spin 48s linear infinite;
    }
    
    @keyframes spin { to { transform: rotate(360deg); } }

    @media (prefers-reduced-motion: reduce) {
      .spin { animation: none !important; }
    }
  </style>

  <g stroke="url(#cccoil-grad)" fill="none" stroke-linecap="round" class="spin">
    <circle class="dash" r="342" cx="400" cy="400" stroke-width="9.5" stroke-dasharray="1827 2149" transform="rotate(360, 400, 400)" opacity="0.87"/>
    <circle class="dash" r="324" cx="400" cy="400" stroke-width="9.5" stroke-dasharray="1634 2036" transform="rotate(340, 400, 400)" opacity="0.34"/>
    <circle class="dash" r="306" cx="400" cy="400" stroke-width="9.5" stroke-dasharray="1453 1923" transform="rotate(320, 400, 400)" opacity="0.84"/>
    <circle class="dash" r="288" cx="400" cy="400" stroke-width="9.5" stroke-dasharray="1282 1810" transform="rotate(300, 400, 400)" opacity="0.31"/>
    <circle class="dash" r="270" cx="400" cy="400" stroke-width="9.5" stroke-dasharray="1122 1696" transform="rotate(280, 400, 400)" opacity="0.86"/>
    <circle class="dash" r="252" cx="400" cy="400" stroke-width="9.5" stroke-dasharray="972 1583" transform="rotate(260, 400, 400)" opacity="0.75"/>
    <circle class="dash" r="234" cx="400" cy="400" stroke-width="9.5" stroke-dasharray="833 1470" transform="rotate(240, 400, 400)" opacity="0.75"/>
    <circle class="dash" r="216" cx="400" cy="400" stroke-width="9.5" stroke-dasharray="705 1357" transform="rotate(220, 400, 400)" opacity="0.19"/>
    <circle class="dash" r="198" cx="400" cy="400" stroke-width="9.5" stroke-dasharray="587 1244" transform="rotate(200, 400, 400)" opacity="0.35"/>
    <circle class="dash" r="180" cx="400" cy="400" stroke-width="9.5" stroke-dasharray="481 1131" transform="rotate(180, 400, 400)" opacity="0.67"/>
    <circle class="dash" r="162" cx="400" cy="400" stroke-width="9.5" stroke-dasharray="385 1018" transform="rotate(160, 400, 400)" opacity="0.91"/>
    <circle class="dash" r="144" cx="400" cy="400" stroke-width="9.5" stroke-dasharray="299 905" transform="rotate(140, 400, 400)" opacity="0.57"/>
    <circle class="dash" r="126" cx="400" cy="400" stroke-width="9.5" stroke-dasharray="224 792" transform="rotate(120, 400, 400)" opacity="0.61"/>
    <circle class="dash" r="108" cx="400" cy="400" stroke-width="9.5" stroke-dasharray="160 679" transform="rotate(100, 400, 400)" opacity="0.64"/>
    <circle class="dash" r="90"  cx="400" cy="400" stroke-width="9.5" stroke-dasharray="107 565" transform="rotate(80, 400, 400)" opacity="0.84"/>
    <circle class="dash" r="72"  cx="400" cy="400" stroke-width="9.5" stroke-dasharray="64 452"  transform="rotate(60, 400, 400)" opacity="0.87"/>
    <circle class="dash" r="54"  cx="400" cy="400" stroke-width="9.5" stroke-dasharray="32 339"  transform="rotate(40, 400, 400)" opacity="0.67"/>
    <circle class="dash" r="36"  cx="400" cy="400" stroke-width="9.5" stroke-dasharray="11 226"  transform="rotate(20, 400, 400)" opacity="0.94"/>
    <circle class="dash" r="18"  cx="400" cy="400" stroke-width="9.5" stroke-dasharray="0 113"   opacity="0.60"/>
  </g>
</svg>
